<svg xmlns="http://www.w3.org/2000/svg" xmlns:xlink="http://www.w3.org/1999/xlink" version="1.1" width="204.2007pt" height="98.0001pt" viewBox="0 0 204.2007 98.0001">
<defs>
<clipPath id="clip_0">
<path transform="matrix(1,0,0,-1,10,88.0001)" d="M-9-9H194V88H-9Z" fill-rule="evenodd"/>
</clipPath>
</defs>
<g clip-path="url(#clip_0)">
<g id="layer_1" data-name="">
<path transform="matrix(1,0,0,-1,10,88.0001)" d="M43.9821 44.0671 42.6453 36.3538 40.9204 37.5083 41.3201 43.1237ZM46.4862 44.7026C47.5038 45.0615 50.4547 45.3036 51.5302 44.9649L51.0528 39.3508C48.8347 39.2905 49.7951 37.3929 48.8835 35.4447 48.5518 34.7363 48.0526 34.2232 46.999 34.2655 45.8836 34.3103 45.186 34.8914 44.6763 35.0671ZM43.5708 35.8673C43.558 36.6457 44.6769 42.2144 44.9597 43.8829 45.0587 44.4668 44.9694 44.4294 45.6188 44.4974L44.0649 35.5881C43.7794 35.6709 43.8661 35.6661 43.5708 35.8673ZM39.2054 37.6654C39.7505 36.6917 42.2734 34.7689 43.2992 34.2164 45.0856 33.2544 47.3176 32.5882 49.1173 33.9418 50.0377 34.634 49.9714 35.1658 50.4026 36.4861 51.0435 38.4497 51.5869 38.0942 51.7541 38.8613 51.9667 39.8364 52.2879 44.9844 52.1323 45.8912 48.8871 46.3076 45.39 45.7455 42.4471 44.7301 41.0559 44.25 39.2613 43.323 38.342 43.2533 37.2402 43.1697 36.0785 43.0642 34.8857 42.944 34.5685 41.4573 33.929 40.0901 33.0432 38.9191 33.4471 38.4778 33.7901 37.98 34.06 37.4391 36.5774 37.62 38.5486 37.7226 39.2054 37.6654ZM15.7051 40.5261C14.8365 40.4141 14.0978 40.3288 13.6151 40.2931 13.519 38.6929 13.7477 37.0349 14.2597 35.5983 14.8757 35.5442 16.5407 35.8345 17.2675 35.9209 17.765 35.9804 18.6576 36.0748 19.8068 36.1896 18.0462 37.1942 16.6127 38.706 15.7051 40.5261" fill="#ed1c24" fill-rule="evenodd"/>
<path transform="matrix(1,0,0,-1,10,88.0001)" d="M61.5549 55.3524C61.503 55.7223 61.3312 56.3712 61.4509 56.6476 61.5093 56.7816 63.2877 58.085 63.6338 58.644 57.4702 58.5675 53.9552 58.9275 47.6725 60.0239 42.9154 60.8539 38.5469 60.9293 33.7524 61.1872L33.4973 59.8779C32.3096 59.7407 31.0059 59.7983 29.7814 59.6809 28.5905 59.5667 27.4329 59.4369 26.2534 59.2639 23.8229 58.9079 19.5948 57.8891 17.8603 55.9066 17.568 55.5724 17.2916 55.2379 17.0663 54.733 16.8559 54.2614 16.9081 53.6221 16.5827 53.2777 16.2269 52.9013 15.9659 52.7842 15.6297 52.2592 15.3544 51.8295 15.1971 51.5078 14.9893 50.9394 14.5899 49.847 14.5018 48.7284 14.5653 47.5112 13.6959 46.8811 12.99 46.6889 13.0269 44.6343 13.4705 44.4404 13.9776 43.922 14.4283 43.6039 15.067 43.1529 15.4505 42.8304 15.7144 42.6064 16.806 38.5713 20.4922 35.602 24.8726 35.602 29.5503 35.602 33.4372 38.988 34.217 43.4424 35.4243 43.5484 36.5533 43.6385 37.5653 43.7102 39.3766 43.8386 38.4653 43.6847 39.7874 44.2429 40.4042 44.5034 41.0219 44.7812 41.6684 45.0051 44.1899 45.879 47.8134 46.8289 50.5803 46.7881 50.9383 47.9441 52.4965 49.0521 51.5826 50.8119 51.4534 51.061 50.9264 51.717 50.7728 51.8703 49.8421 52.7975 49.4563 52.4633 47.9744 52.236 46.9395 52.0773 45.8376 51.8794 44.8038 51.6917 43.7516 51.501 42.6467 51.294 41.6154 51.0568 40.7971 50.8686 39.3559 50.6829 38.9568 49.9654 38.1838 48.5751 37.8819 46.8153 34.9739 46.5559 36.3478 46.9672 36.902 47.5662 37.5279 48.4792 38.2569 49.5434 38.4103 50.4743 39.4574 51.0316 42.0106 52.3902 47.7952 53.3015 50.8708 52.9186 52.5206 52.7131 53.3339 52.6385 54.995 52.9948 57.8659 53.6102 61.2598 55.3059 61.5549 55.3524ZM15.0486 42.3533C14.5018 42.6257 13.9603 42.9248 13.5632 43.0773L13.5556 40.7923C14.1321 40.909 14.7623 41.0264 15.4366 41.1437 15.2612 41.5539 15.1543 41.9139 15.0486 42.3533" fill="#403f41" fill-rule="evenodd"/>
<path transform="matrix(1,0,0,-1,10,88.0001)" d="M38.4551 29.0718C38.7907 29.0271 38.9477 28.8913 39.1725 28.7552 38.8369 28.8147 38.6186 28.8564 38.4026 29.0455 37.5313 29.175 34.1759 30.5926 32.8691 31.159 33.0094 31.3489 33.1381 31.5476 33.2546 31.7546 34.1218 31.263 34.8446 30.8659 35.2434 30.6584ZM53.2086 22.6871C53.5255 22.5836 53.6984 22.2435 53.5952 21.9268 53.492 21.6102 53.1513 21.4373 52.8347 21.5405 52.5183 21.6437 52.3451 21.9841 52.4486 22.3007 52.5172 22.5119 52.6915 22.659 52.8939 22.7032 52.9951 22.7251 53.1031 22.7214 53.2086 22.6871ZM25.1887 30.0515C25.5053 29.9483 25.6782 29.6079 25.575 29.2912 25.4718 28.9746 25.1314 28.8017 24.8148 28.9049 24.4981 29.0083 24.3252 29.3485 24.4284 29.6651 24.4973 29.8763 24.6713 30.0234 24.8737 30.0677 24.9749 30.0898 25.0832 30.0861 25.1887 30.0515ZM25.3607 29.3613C25.4254 29.5594 25.3171 29.7726 25.1186 29.8372 24.9205 29.9018 24.7073 29.7935 24.643 29.5951 24.5781 29.397 24.6864 29.1841 24.8848 29.1195 24.9508 29.0976 25.0186 29.0957 25.0818 29.1093 25.2085 29.137 25.3176 29.2289 25.3607 29.3613ZM34.5231 27.5859C34.8398 27.4825 35.013 27.1423 34.9095 26.8254 34.8063 26.509 34.4659 26.3358 34.1493 26.4393 33.8326 26.5425 33.6597 26.8826 33.7629 27.1996 33.8318 27.4107 34.0061 27.5579 34.2082 27.6021 34.3094 27.6239 34.4177 27.6202 34.5231 27.5859ZM34.6952 26.8954C34.7598 27.0935 34.6516 27.3067 34.4534 27.3713 34.255 27.436 34.0418 27.3277 33.9775 27.1295 33.9129 26.9314 34.0211 26.7182 34.2193 26.6536 34.2853 26.6321 34.3531 26.6298 34.4163 26.6434 34.543 26.6712 34.6521 26.7633 34.6952 26.8954ZM44.0926 25.2964C44.4093 25.1929 44.5822 24.8525 44.479 24.5358 44.3758 24.2195 44.0354 24.0463 43.7187 24.1495 43.4021 24.2529 43.2292 24.5931 43.3324 24.9097 43.4013 25.1209 43.5753 25.268 43.7777 25.3123 43.8789 25.3344 43.9872 25.3307 44.0926 25.2964ZM44.2644 24.6059C44.3293 24.804 44.2208 25.0172 44.0226 25.0818 43.8245 25.1464 43.6116 25.0381 43.547 24.84 43.482 24.6416 43.5906 24.4287 43.7888 24.3641 43.8548 24.3425 43.9223 24.3403 43.9858 24.3539 44.1125 24.3816 44.2216 24.4738 44.2644 24.6059ZM53.3806 21.9966C53.4453 22.195 53.337 22.4079 53.1388 22.4725 52.9407 22.5371 52.7275 22.4289 52.6629 22.2307 52.5983 22.0326 52.7066 21.8194 52.9047 21.7548 52.971 21.7332 53.0385 21.731 53.102 21.7449 53.2284 21.7723 53.3375 21.8645 53.3806 21.9966ZM22.6942 35.8316C20.3335 35.6085 15.1784 35.1264 14.3504 35.1357 14.6852 33.5115 16.0481 29.8301 17.1028 29.0673L38.2275 24.042C42.8581 22.8773 47.4704 21.7134 52.1334 20.5401 52.9543 20.3338 55.0239 19.5925 55.7668 19.84 56.3275 20.0268 56.5679 20.4642 56.8208 20.9704 57.2267 21.7843 57.1564 21.6666 56.808 22.568 56.6011 23.1024 56.3845 23.6438 56.1807 24.194 56.0775 24.4729 55.9899 24.7059 55.8856 24.9744 55.3839 26.2655 55.849 25.4724 52.2978 26.7676 53.3721 28.0789 57.3015 31.7923 58.2123 32.2682L56.0021 35.3917C51.2793 31.07 40.8954 31.7404 38.283 37.0117L33.5854 36.6608C32.7467 38.776 30.6822 40.2718 28.2685 40.2718 25.5498 40.2718 23.2744 38.3743 22.6942 35.8316" fill="#403f41" fill-rule="evenodd"/>
<path transform="matrix(1,0,0,-1,10,88.0001)" d="M53.9578 27.1449C54.612 26.8824 55.6529 26.4348 55.9755 26.7911L57.1496 28.3649C57.5405 28.9236 57.9957 29.4086 58.3829 29.9684 59.0811 30.9779 59.1661 30.9691 59.0811 31.0306 59.0216 31.0737 58.8781 31.1511 58.8044 31.6383 58.0442 31.2664 54.1596 27.4198 53.9578 27.1449" fill="#403f41" fill-rule="evenodd"/>
<path transform="matrix(1,0,0,-1,10,88.0001)" d="M38.4026 29.0455C38.6189 28.8564 38.8369 28.8147 39.1725 28.7555 38.9477 28.891 38.791 29.0271 38.4551 29.0718Z" fill="#231f20" fill-rule="evenodd"/>
<path transform="matrix(1,0,0,-1,10,88.0001)" d="M26.2106 37.7756C26.0991 37.7617 25.9872 37.751 25.8741 37.7433 25.8086 37.7388 25.744 37.7359 25.6788 37.7334 25.653 37.3337 25.5008 37.0749 25.5008 37.0749L25.2882 37.0757 25.2833 37.076 25.2782 37.0757 25.2785 37.0763 25.0659 37.0862C25.0659 37.0862 24.9273 37.3513 24.9216 37.751 24.7431 37.7666 24.5665 37.7895 24.3921 37.8198 24.2836 37.4352 24.0817 37.2149 24.0817 37.2149L23.8737 37.2603V37.2597L23.8691 37.2611 23.8643 37.2623 23.6588 37.3161C23.6588 37.3161 23.5789 37.6033 23.6551 37.9947 23.4839 38.0466 23.3155 38.1053 23.1508 38.1713 22.9646 37.8196 22.7225 37.6469 22.7225 37.6469L22.5286 37.7342V37.734L22.5241 37.7359 22.5198 37.7382 22.3299 37.8337C22.3299 37.8337 22.3115 38.13 22.4663 38.4956 22.3098 38.5818 22.1576 38.6748 22.0093 38.774 21.7545 38.4701 21.4829 38.3519 21.4829 38.3519L21.3114 38.4775V38.4772L21.3075 38.4803 21.3038 38.4831V38.4834L21.1377 38.6164C21.1377 38.6164 21.181 38.9081 21.407 39.2323 21.2715 39.3494 21.1411 39.4719 21.0161 39.5997 20.7051 39.3579 20.4171 39.299 20.4171 39.299L20.2757 39.458 20.2751 39.4577 20.2723 39.4614 20.2689 39.4651H20.2691L20.1345 39.6298C20.1345 39.6298 20.2365 39.903 20.5211 40.172 20.4126 40.3146 20.3091 40.4617 20.2127 40.6137 19.8615 40.445 19.5712 40.4476 19.5712 40.4476L19.4661 40.6321 19.4658 40.6318 19.4635 40.6363 19.461 40.6403 19.4613 40.6406 19.3635 40.8294C19.3635 40.8294 19.5182 41.0723 19.8479 41.2753 19.7711 41.4377 19.7011 41.6041 19.6381 41.7742 19.2631 41.6846 18.9831 41.7467 18.9831 41.7467L18.9181 41.9488 18.9167 41.9536 18.9153 41.9581H18.9156L18.8592 42.1634C18.8592 42.1634 19.059 42.3666 19.4199 42.4964 19.3706 42.7059 19.3314 42.9194 19.3037 43.1365 18.923 43.1337 18.667 43.2533 18.667 43.2533L18.6483 43.465H18.648V43.4701L18.6474 43.4747 18.6375 43.6873C18.6375 43.6873 18.8748 43.8403 19.2526 43.8888 19.2512 44.0719 19.2577 44.2536 19.2722 44.4328 18.8994 44.5093 18.6744 44.6791 18.6744 44.6791L18.7002 44.8903H18.6996L18.7007 44.8951 18.701 44.9002 18.7013 44.8999 18.7356 45.1097C18.7356 45.1097 18.9989 45.21 19.3776 45.1791 19.4145 45.3583 19.459 45.5343 19.5109 45.7078 19.1625 45.8597 18.978 46.0726 18.978 46.0726L19.0468 46.2739 19.0485 46.2781 19.0502 46.283 19.1273 46.4811C19.1273 46.4811 19.406 46.5245 19.7702 46.4153 19.8434 46.582 19.9233 46.7456 20.0106 46.9043 19.7011 47.1257 19.5647 47.3723 19.5647 47.3723L19.6741 47.5549H19.6739L19.6767 47.5588 19.679 47.5631H19.6792L19.7957 47.7408C19.7957 47.7408 20.0778 47.7252 20.4117 47.5427 20.5174 47.6901 20.63 47.8327 20.7482 47.9704 20.4911 48.2513 20.4089 48.5218 20.4089 48.5218L20.5537 48.6777H20.5534L20.5569 48.6811 20.5603 48.6848 20.5605 48.6842 20.7116 48.8339C20.7116 48.8339 20.9843 48.7602 21.2729 48.5118 21.4067 48.634 21.5461 48.7508 21.6904 48.8614 21.4977 49.1893 21.4733 49.4705 21.4733 49.4705L21.6476 49.5927H21.6473L21.6516 49.5955 21.6556 49.5981 21.8344 49.7129C21.8344 49.7129 22.0853 49.5842 22.316 49.282 22.4719 49.3736 22.6324 49.4592 22.7974 49.5374 22.6772 49.8977 22.7123 50.1769 22.7123 50.1769L22.9079 50.2605H22.9076L22.9124 50.2622 22.9167 50.2642 23.1157 50.3391C23.1157 50.3391 23.3342 50.1616 23.4967 49.818 23.6682 49.875 23.8431 49.9243 24.0208 49.9663 23.9783 50.3444 24.0707 50.6109 24.0707 50.6109L24.2793 50.6514V50.6517L24.2838 50.6526 24.2889 50.6534 24.4993 50.6854C24.4993 50.6854 24.6762 50.4655 24.7637 50.0947 24.8539 50.1046 24.9437 50.1131 25.035 50.1194 25.1263 50.1256 25.2167 50.1293 25.3069 50.1316 25.3437 50.5108 25.4897 50.7526 25.4897 50.7526L25.7023 50.7492V50.7495L25.7071 50.7492 25.7119 50.7489 25.9243 50.7365C25.9243 50.7365 26.0515 50.4848 26.0603 50.1043 26.2423 50.0868 26.4223 50.0618 26.5997 50.0284 26.7148 50.3906 26.907 50.5962 26.907 50.5962L27.1142 50.5485V50.5488L27.1191 50.5474 27.1239 50.5463 27.3288 50.4901C27.3288 50.4901 27.4011 50.218 27.3308 49.8447 27.5046 49.7894 27.6752 49.7265 27.8422 49.6568 28.0298 49.9873 28.2611 50.1486 28.2611 50.1486L28.4539 50.0587V50.059L28.4584 50.057 28.4627 50.055 28.4624 50.0547 28.6515 49.9572C28.6515 49.9572 28.6654 49.6752 28.5188 49.3243 28.6756 49.2347 28.8283 49.1389 28.9766 49.0365 29.2272 49.3237 29.4874 49.4354 29.4874 49.4354L29.658 49.3084 29.6583 49.3087 29.662 49.3058 29.666 49.3027H29.6657L29.8312 49.1689C29.8312 49.1689 29.7873 48.8871 29.5699 48.5711 29.7054 48.4512 29.8355 48.3256 29.9599 48.1941 30.2672 48.426 30.5478 48.4821 30.5478 48.4821L30.6887 48.3228 30.6918 48.3188 30.6952 48.3154 30.695 48.3151 30.8288 48.1501C30.8288 48.1501 30.7264 47.8809 30.4447 47.6155 30.5518 47.471 30.6524 47.3213 30.7468 47.1674 31.098 47.3326 31.3872 47.3289 31.3872 47.3289L31.4915 47.1438H31.4918L31.494 47.1396 31.4963 47.1353H31.496L31.5927 46.9457C31.5927 46.9457 31.4354 46.7016 31.1012 46.5001 31.1754 46.3371 31.2426 46.1704 31.303 46.0006 31.6837 46.0913 31.9683 46.0267 31.9683 46.0267L32.0318 45.8237 32.0321 45.824 32.0335 45.8192 32.0349 45.8147H32.0346L32.0899 45.6092C32.0899 45.6092 31.8827 45.4008 31.5108 45.2733 31.5488 45.0998 31.5794 44.9232 31.6029 44.7446 31.998 44.7559 32.2659 44.6321 32.2659 44.6321L32.2858 44.4203H32.2863V44.4158L32.2869 44.4107H32.2866L32.298 44.1984C32.298 44.1984 32.0499 44.0359 31.6562 43.9894 31.6582 43.8094 31.6519 43.6311 31.6389 43.4546 32.0295 43.384 32.2671 43.2062 32.2671 43.2062L32.243 42.9948 32.2424 42.99 32.2415 42.9851 32.2084 42.7754C32.2084 42.7754 31.9311 42.6674 31.5351 42.7045 31.5 42.529 31.4575 42.3556 31.4076 42.1852 31.7758 42.035 31.9717 41.811 31.9717 41.811L31.9042 41.6095 31.9025 41.6047 31.9011 41.6004H31.9008L31.8249 41.4017C31.8249 41.4017 31.5303 41.3541 31.1499 41.4731 31.0791 41.309 31.0011 41.1489 30.9166 40.9924 31.2471 40.7684 31.3929 40.5077 31.3929 40.5077L31.2846 40.3245H31.2849L31.2823 40.3203 31.2797 40.3166 31.1638 40.1383C31.1638 40.1383 30.8653 40.1525 30.5172 40.3489 30.4143 40.2035 30.3052 40.0629 30.1904 39.9268 30.4673 39.6388 30.5555 39.3534 30.5555 39.3534L30.4118 39.1969V39.1966L30.4084 39.1932 30.4053 39.1895 30.405 39.1898 30.2547 39.0393C30.2547 39.0393 29.9662 39.1153 29.6668 39.3792 29.5364 39.2584 29.4007 39.1428 29.2598 39.0331 29.4695 38.6949 29.4968 38.3984 29.4968 38.3984L29.3236 38.2751V38.2748L29.3193 38.2723 29.3153 38.2694V38.2697L29.137 38.1535C29.137 38.1535 28.8723 38.2873 28.635 38.6053 28.4837 38.5146 28.3277 38.4304 28.1679 38.3528 28.3048 37.9786 28.2713 37.6826 28.2713 37.6826L28.0769 37.597V37.5968L28.0723 37.5951 28.0678 37.5931V37.5934L27.8697 37.5157C27.8697 37.5157 27.6358 37.7016 27.4677 38.0639 27.3002 38.0066 27.1295 37.9559 26.9555 37.9128 27.0128 37.5171 26.9178 37.2334 26.9178 37.2334L26.7097 37.19 26.71 37.1897 26.7052 37.1891 26.7004 37.188 26.7001 37.1883 26.4903 37.1537C26.4903 37.1537 26.2993 37.385 26.2106 37.7756ZM25.1331 48.8701C27.8714 49.0558 30.2417 46.9862 30.4274 44.2483 30.5376 42.6223 29.8528 41.1262 28.705 40.14L28.7025 40.1377C28.673 40.1125 28.6435 40.0878 28.6135 40.0632L28.6109 40.0609C28.5809 40.0365 28.5508 40.0124 28.5202 39.9886L28.5174 39.9864C28.4868 39.9626 28.4559 39.9393 28.425 39.9163 27.6868 39.3684 26.788 39.0186 25.8026 38.9517 23.0644 38.766 20.694 40.8353 20.5084 43.5736 20.4009 45.1579 21.0484 46.6189 22.1437 47.605L22.2307 47.6819 22.2333 47.6841C22.2625 47.7094 22.2922 47.7343 22.3223 47.7587L22.3248 47.7609C23.0956 48.3919 24.0633 48.7976 25.1331 48.8701" fill="#ed1c24"/>
<path transform="matrix(1,0,0,-1,10,88.0001)" d="M24.9831 50.5205V50.5208L24.787 50.5171C24.787 50.5171 24.6421 50.7223 24.6172 51.0429 24.6163 51.0551 24.6155 51.0676 24.6149 51.0803 24.446 51.0948 24.2807 51.1228 24.12 51.1637 24.1149 51.1503 24.1098 51.1373 24.1047 51.1248 23.9808 50.8283 23.7796 50.6781 23.7796 50.6781L23.5939 50.7433V50.743L23.5899 50.7447 23.5857 50.7461V50.7464L23.4028 50.8178C23.4028 50.8178 23.3481 51.063 23.4476 51.3686 23.4522 51.3825 23.457 51.3975 23.4624 51.4125 23.3141 51.4888 23.1724 51.5769 23.0391 51.6756 23.0275 51.6634 23.0159 51.6515 23.0051 51.6407 22.7772 51.4142 22.5337 51.3524 22.5337 51.3524L22.3872 51.4834 22.3838 51.4862 22.3807 51.4894 22.2389 51.6254C22.2389 51.6254 22.2823 51.8729 22.4912 52.1172 22.5014 52.1291 22.5125 52.1416 22.5238 52.1544 22.4201 52.2751 22.3257 52.4035 22.2412 52.5396 22.2097 52.5251 22.18 52.5121 22.1519 52.5008 21.8548 52.3786 21.6062 52.4146 21.6062 52.4146L21.5212 52.5915 21.5192 52.5957 21.5172 52.5997V52.6L21.4387 52.78C21.4387 52.78 21.5731 52.9917 21.8597 53.1377 21.8846 53.1502 21.9115 53.1632 21.9402 53.1765 21.886 53.3361 21.8441 53.502 21.8163 53.6723 21.7953 53.6717 21.7752 53.6715 21.7562 53.6715 21.4347 53.6726 21.2187 53.801 21.2187 53.801L21.208 53.9972 21.2077 54.0017 21.2074 54.0062H21.2077L21.2037 54.2027C21.2037 54.2027 21.4092 54.347 21.7295 54.3719 21.7463 54.3733 21.7636 54.3742 21.7814 54.3753 21.7919 54.5434 21.816 54.7081 21.8523 54.8685 21.8384 54.8739 21.8248 54.8793 21.8117 54.8847 21.5152 55.0086 21.365 55.2101 21.365 55.2101L21.4299 55.3952 21.4316 55.3995 21.433 55.4037 21.5048 55.5866C21.5048 55.5866 21.7497 55.6415 22.0555 55.5418 22.0652 55.5386 22.0754 55.5352 22.0853 55.5318 22.1596 55.6846 22.246 55.8306 22.3435 55.9687 22.3381 55.974 22.3325 55.9791 22.3277 55.9843 22.1009 56.2119 22.0391 56.4557 22.0391 56.4557L22.17 56.6019V56.6022L22.1732 56.6053 22.1763 56.6087V56.6084L22.3123 56.7502C22.3123 56.7502 22.5598 56.7071 22.8042 56.4982 22.8061 56.4965 22.8081 56.4948 22.8101 56.4931 22.9385 56.6082 23.0769 56.713 23.2237 56.8057 23.1029 57.1017 23.1389 57.3486 23.1389 57.3486L23.3158 57.4336 23.3198 57.4356 23.324 57.4376V57.4373L23.504 57.5161C23.504 57.5161 23.7078 57.3863 23.8533 57.1107 24.018 57.1686 24.1897 57.2131 24.3663 57.2428 24.3714 57.5549 24.4953 57.7636 24.4953 57.7636L24.6915 57.7743V57.7746H24.696L24.7005 57.7749V57.7746L24.8967 57.7786C24.8967 57.7786 25.033 57.585 25.0637 57.2805 25.2451 57.2703 25.4222 57.2443 25.5943 57.204 25.7185 57.4781 25.9044 57.6173 25.9044 57.6173L26.0895 57.5524H26.0898L26.0938 57.551 26.098 57.5493 26.2809 57.4775C26.2809 57.4775 26.3305 57.2553 26.2494 56.9701 26.4129 56.8899 26.5686 56.7958 26.7148 56.6892 26.9314 56.8877 27.15 56.9429 27.15 56.9429L27.2962 56.8123H27.2965L27.2996 56.8091 27.303 56.8063 27.3027 56.806 27.4445 56.67C27.4445 56.67 27.4062 56.45 27.2265 56.2201 27.3464 56.0826 27.4544 55.9349 27.5491 55.7776 27.8226 55.8757 28.0429 55.8437 28.0429 55.8437L28.1279 55.6665H28.1282L28.1299 55.6622 28.1319 55.6586 28.1316 55.6583 28.2104 55.4783C28.2104 55.4783 28.0911 55.2903 27.8379 55.1466 27.8969 54.966 27.94 54.7781 27.9652 54.5842 28.2464 54.5664 28.4301 54.4569 28.4301 54.4569L28.4411 54.2611V54.2565L28.4414 54.252 28.4451 54.0556C28.4451 54.0556 28.2651 53.9291 27.9794 53.8923 27.9626 53.7077 27.9295 53.5277 27.8819 53.3534 28.1489 53.2293 28.2838 53.0481 28.2838 53.0481L28.2189 52.863 28.2192 52.8627 28.2172 52.8588 28.2161 52.8545 28.2158 52.8542 28.1443 52.6717C28.1443 52.6717 27.9145 52.6201 27.6228 52.7071 27.5386 52.5506 27.4414 52.4018 27.3325 52.2629 27.5499 52.0381 27.6097 51.8026 27.6097 51.8026L27.4788 51.656 27.4759 51.6529 27.4725 51.6495 27.3365 51.5081C27.3365 51.5081 27.089 51.5511 26.8449 51.7601 26.8438 51.7612 26.8427 51.762 26.8418 51.7629 26.7208 51.6648 26.5927 51.5755 26.4574 51.4962 26.4577 51.495 26.4583 51.4939 26.4589 51.4928 26.581 51.1957 26.5448 50.9471 26.5448 50.9471L26.3676 50.8618H26.3679L26.3636 50.8601 26.3597 50.8581 26.1797 50.7796C26.1797 50.7796 25.9676 50.9142 25.8219 51.2005 25.8199 51.2039 25.8182 51.2079 25.8163 51.2116 25.6555 51.1611 25.4889 51.1231 25.3176 51.099 25.3176 51.0888 25.3176 51.0789 25.3176 51.0693 25.3168 50.7478 25.1881 50.5321 25.1881 50.5321L24.9922 50.521H24.9919L24.9877 50.5208ZM24.0508 54.1108C24.035 54.536 24.3666 54.8935 24.7915 54.9096 25.2164 54.9255 25.5739 54.5939 25.59 54.1689 25.6059 53.7437 25.2746 53.3863 24.8496 53.3704 24.5662 53.3597 24.313 53.5034 24.1707 53.7267 24.0996 53.8379 24.0562 53.9694 24.0508 54.1108ZM24.8023 54.6216C24.5364 54.6114 24.3286 54.3878 24.3388 54.1219 24.3488 53.8557 24.5727 53.6482 24.8386 53.6581 25.1048 53.6683 25.3123 53.892 25.3023 54.1579 25.2989 54.2469 25.272 54.3291 25.2275 54.3986 25.1382 54.5383 24.9797 54.6284 24.8023 54.6216ZM27.5601 54.2781C27.5046 55.7563 26.2613 56.9095 24.783 56.8539 23.305 56.7984 22.1516 55.5551 22.2072 54.0768 22.2627 52.5986 23.5063 51.4451 24.9846 51.501 26.4626 51.5565 27.6157 52.7998 27.5601 54.2781" fill="#ffffff"/>
<path transform="matrix(1,0,0,-1,10,88.0001)" d="M20.9795 45.6758C21.9532 48.1552 24.7521 49.3758 27.2316 48.4021 29.7111 47.4287 30.9317 44.6295 29.9582 42.15 28.9845 39.6709 26.1853 38.45 23.7061 39.4237 22.0533 40.0725 20.9597 41.5332 20.7028 43.1691 20.5741 43.9875 20.6549 44.8492 20.9795 45.6758ZM22.3591 44.6431C21.7026 44.5399 21.2539 43.924 21.3571 43.2675 21.46 42.6107 22.0759 42.162 22.7324 42.2649 23.3892 42.368 23.838 42.984 23.7351 43.6408 23.6319 44.2973 23.0159 44.746 22.3591 44.6431ZM25.7411 42.179C25.0846 42.0758 24.6356 41.4601 24.7388 40.8033 24.842 40.1465 25.458 39.6978 26.1145 39.801 26.7712 39.9042 27.22 40.5201 27.1168 41.1766 27.0139 41.8334 26.3979 42.2821 25.7411 42.179ZM24.8233 48.0249C24.1665 47.922 23.7178 47.306 23.8209 46.6492 23.9241 45.9927 24.5401 45.544 25.1966 45.6469 25.8534 45.75 26.3021 46.366 26.1989 47.0225 26.0957 47.6793 25.4798 48.128 24.8233 48.0249ZM25.7675 44.7633C25.3219 44.9382 24.8187 44.7188 24.6436 44.2732 24.4687 43.8273 24.6881 43.3242 25.1337 43.149 25.5796 42.9741 26.0827 43.1935 26.2576 43.6394 26.316 43.7879 26.3305 43.9427 26.3075 44.0898 26.2613 44.384 26.0646 44.6465 25.7675 44.7633ZM28.2053 45.561C27.5485 45.4578 27.0998 44.8418 27.203 44.1853 27.3059 43.5285 27.9218 43.0798 28.5786 43.183 29.2351 43.2859 29.6838 43.9019 29.5809 44.5586 29.4778 45.2154 28.8618 45.6642 28.2053 45.561Z" fill="#ffffff" fill-rule="evenodd"/>
<path transform="matrix(1,0,0,-1,10,88.0001)" d="M32.4989 46.8556V46.8556L32.2804 46.9165C32.2804 46.9165 32.1885 47.1917 32.2668 47.5549 32.2699 47.5685 32.273 47.5826 32.2764 47.5971 32.0944 47.6691 31.9207 47.755 31.7563 47.8531 31.7463 47.84 31.7361 47.8273 31.7265 47.8154 31.4912 47.5279 31.2185 47.4284 31.2185 47.4284L31.0348 47.5617 31.0306 47.5648 31.0263 47.5679H31.0266L30.8477 47.7079C30.8477 47.7079 30.8682 47.9974 31.0796 48.3026 31.0893 48.3165 31.0997 48.3316 31.1105 48.3466 30.9716 48.4801 30.8441 48.6244 30.729 48.7777 30.7123 48.7681 30.6955 48.7587 30.6797 48.7502 30.3525 48.5751 30.0626 48.5872 30.0626 48.5872L29.9438 48.7806H29.9435L29.9409 48.7848 29.9384 48.7896 29.8267 48.9869C29.8267 48.9869 29.9565 49.2469 30.2686 49.4481 30.2839 49.458 30.3004 49.468 30.3168 49.4785 30.2423 49.6463 30.1802 49.8197 30.1317 49.9983 30.092 49.9929 30.0546 49.9881 30.02 49.9847 29.6504 49.9479 29.3873 50.0703 29.3873 50.0703L29.3516 50.2943 29.3508 50.2997 29.3499 50.3048H29.3502L29.3227 50.5301C29.3227 50.5301 29.5418 50.72 29.9072 50.7866 29.939 50.7926 29.973 50.798 30.0093 50.8031 30.0019 50.9978 30.0104 51.1951 30.0362 51.393 30.0127 51.3992 29.9906 51.4057 29.9693 51.4123 29.6138 51.5197 29.4174 51.7334 29.4174 51.7334L29.4701 51.9542 29.4712 51.9591 29.4727 51.9642H29.4729L29.5333 52.183C29.5333 52.183 29.8089 52.2748 30.1717 52.1963 30.1904 52.1923 30.2102 52.1878 30.2301 52.183 30.2975 52.3655 30.3786 52.5399 30.4719 52.7054 30.4586 52.7159 30.4449 52.7267 30.4325 52.7369 30.145 52.9722 30.0455 53.2449 30.0455 53.2449L30.1788 53.4285H30.1785L30.1819 53.4325 30.1847 53.4368H30.185L30.3248 53.6156C30.3248 53.6156 30.6142 53.5952 30.9197 53.3837 30.9294 53.3772 30.9396 53.3699 30.9495 53.3628 31.0822 53.5073 31.2262 53.6406 31.3801 53.761 31.3758 53.7684 31.3713 53.7761 31.3676 53.7834 31.1919 54.1106 31.2041 54.4008 31.2041 54.4008L31.3977 54.5196 31.4022 54.5221 31.4065 54.525V54.5247L31.604 54.6364C31.604 54.6364 31.8637 54.5068 32.0652 54.1945 32.0666 54.1922 32.0686 54.1894 32.07 54.1871 32.2503 54.2718 32.438 54.3421 32.6313 54.3963 32.5956 54.7639 32.7172 55.0253 32.7172 55.0253L32.9414 55.061 32.9462 55.0619 32.9516 55.0627V55.0624L33.177 55.0902C33.177 55.0902 33.3598 54.8787 33.4293 54.5258 33.6311 54.5352 33.8357 54.5275 34.041 54.502 34.1501 54.8459 34.3565 55.0358 34.3565 55.0358L34.577 54.9831 34.5821 54.9819 34.5872 54.9805V54.9802L34.8058 54.9198C34.8058 54.9198 34.8925 54.6602 34.8256 54.3129 35.0232 54.2415 35.2106 54.1542 35.3877 54.0527 35.6162 54.3152 35.8679 54.4076 35.8679 54.4076L36.0516 54.2744 36.0558 54.2713 36.0598 54.2684V54.2682L36.2384 54.1284C36.2384 54.1284 36.22 53.8656 36.0357 53.5768 36.1902 53.4339 36.3314 53.2783 36.4581 53.1116 36.7637 53.2599 37.0239 53.2488 37.0239 53.2488L37.1424 53.0555H37.1426L37.1452 53.051 37.1477 53.0467V53.0464L37.2594 52.8491C37.2594 52.8491 37.1441 52.6181 36.8691 52.4231 36.9567 52.2312 37.027 52.0319 37.0797 51.8264 37.4151 51.8443 37.6483 51.736 37.6483 51.736L37.6841 51.5117 37.6849 51.5066 37.6858 51.5015H37.6855L37.713 51.2762C37.713 51.2762 37.5185 51.1075 37.1908 51.0324 37.1965 50.8127 37.182 50.5905 37.1458 50.3674 37.4511 50.2549 37.618 50.0726 37.618 50.0726L37.5656 49.8521 37.5642 49.847 37.563 49.8421H37.5627L37.5021 49.6233C37.5021 49.6233 37.2609 49.5428 36.932 49.5967 36.8527 49.3982 36.7563 49.2097 36.646 49.0326 36.9003 48.8066 36.9899 48.5614 36.9899 48.5614L36.8569 48.3778V48.3775L36.8535 48.3738 36.8507 48.3693H36.8504L36.7109 48.1907C36.7109 48.1907 36.4394 48.2097 36.1451 48.4027 36 48.2573 35.8432 48.1249 35.6766 48.0067 35.8432 47.6861 35.8313 47.4055 35.8313 47.4055L35.6377 47.2867H35.638L35.6335 47.2839 35.6289 47.2813 35.4314 47.1696C35.4314 47.1696 35.1717 47.2995 34.9705 47.6116 34.9696 47.613 34.9688 47.6147 34.9679 47.6158 34.8015 47.5469 34.63 47.4908 34.4543 47.4477 34.4543 47.4463 34.4546 47.4449 34.4546 47.4435 34.4914 47.0738 34.3692 46.8108 34.3692 46.8108L34.145 46.7751 34.1399 46.7745 34.1348 46.7734V46.7736L33.9094 46.7461C33.9094 46.7461 33.7192 46.9653 33.6526 47.3306 33.6518 47.3352 33.6512 47.34 33.6504 47.3448 33.4553 47.3423 33.2583 47.355 33.0608 47.3854 33.0574 47.374 33.0542 47.363 33.0508 47.3522 32.9437 46.9967 32.73 46.8003 32.73 46.8003L32.5094 46.853H32.5091L32.504 46.8544ZM32.6554 51.139C32.7784 51.6149 33.2637 51.9009 33.7397 51.7782 34.2153 51.6552 34.5013 51.1696 34.3786 50.694 34.2556 50.218 33.7703 49.9317 33.2943 50.0547 32.9771 50.1369 32.7444 50.3799 32.6608 50.6738 32.6188 50.8207 32.6143 50.9805 32.6554 51.139ZM33.6563 51.4559C33.3587 51.5327 33.0545 51.3539 32.9777 51.0559 32.9006 50.7577 33.0797 50.4539 33.3774 50.377 33.6756 50.3002 33.9792 50.4791 34.0563 50.777 34.0821 50.8765 34.0792 50.9763 34.0532 51.0681 34.0007 51.2524 33.855 51.4046 33.6563 51.4559ZM36.5958 50.1627C37.0236 51.8173 36.0289 53.5056 34.3738 53.9334 32.7189 54.3611 31.0303 53.3665 30.6026 51.7116 30.1751 50.0564 31.17 48.3681 32.8249 47.9404 34.4798 47.5126 36.1681 48.5076 36.5958 50.1627" fill="#ffffff"/>
<path transform="matrix(1,0,0,-1,10,88.0001)" d="M67.1057 45.4856V39.3131H68.0856V36.919H63.4249V39.3131H64.5486V46.1208H63.4249V48.4988H68.5551L70.6561 40.9445 72.7894 48.4988H77.8385V46.1208H76.7146V39.3131H77.8385V36.919H73.1614V39.3131H74.1577V45.3745L71.5382 36.919H69.755ZM81.8612 42.7958C81.8612 41.9108 82.1597 41.1508 82.7595 40.521 83.3596 39.8886 84.0679 39.5736 84.8903 39.5736 85.7426 39.5736 86.4621 39.8803 87.0454 40.4966 87.6291 41.1129 87.9197 41.8782 87.9197 42.7958 87.9197 43.6399 87.6291 44.3591 87.0454 44.9535 86.4621 45.5482 85.7591 45.8439 84.9393 45.8439 84.0787 45.8439 83.3513 45.5508 82.7569 44.9617 82.1597 44.3727 81.8612 43.6507 81.8612 42.7958ZM78.9457 42.8284C78.9457 43.6346 79.0977 44.3945 79.399 45.1083 79.7003 45.8249 80.1403 46.4655 80.71 47.033 81.2775 47.5894 81.9153 48.0101 82.6237 48.2978 83.3323 48.5827 84.1005 48.7267 84.9257 48.7267 85.7154 48.7267 86.4621 48.5802 87.1597 48.2896 87.8598 47.9993 88.4897 47.573 89.0461 47.0166 89.6298 46.4465 90.0723 45.798 90.379 45.0731 90.6829 44.3511 90.8348 43.5909 90.8348 42.7958 90.8348 41.9706 90.6936 41.1942 90.4088 40.4668 90.1264 39.742 89.7083 39.0906 89.1573 38.5206 88.5954 37.9315 87.9469 37.4783 87.2113 37.1633 86.4782 36.8484 85.7047 36.6911 84.8957 36.6911 84.0353 36.6911 83.2482 36.8456 82.5287 37.1526 81.8096 37.4593 81.1636 37.9205 80.5907 38.5342 80.0396 39.1232 79.6272 39.7746 79.3556 40.4858 79.0815 41.1996 78.9457 41.9814 78.9457 42.8284ZM97.9058 39.3131H98.9807V36.919H93.981V39.3131H95.0559V46.1208H93.981V44.5411H91.8961V48.4988H101.0656V44.5411H98.9807V46.1208H97.9058ZM105.0367 42.7958C105.0367 41.9108 105.3351 41.1508 105.935 40.521 106.5351 39.8886 107.2434 39.5736 108.0658 39.5736 108.9181 39.5736 109.6376 39.8803 110.2209 40.4966 110.8046 41.1129 111.0951 41.8782 111.0951 42.7958 111.0951 43.6399 110.8046 44.3591 110.2209 44.9535 109.6376 45.5482 108.9346 45.8439 108.1148 45.8439 107.2542 45.8439 106.5268 45.5508 105.9324 44.9617 105.3351 44.3727 105.0367 43.6507 105.0367 42.7958ZM102.1212 42.8284C102.1212 43.6346 102.2732 44.3945 102.5745 45.1083 102.8758 45.8249 103.3157 46.4655 103.8855 47.033 104.453 47.5894 105.0908 48.0101 105.7992 48.2978 106.5078 48.5827 107.276 48.7267 108.1012 48.7267 108.8909 48.7267 109.6376 48.5802 110.3352 48.2896 111.0353 47.9993 111.6652 47.573 112.2216 47.0166 112.8053 46.4465 113.2478 45.798 113.5545 45.0731 113.8584 44.3511 114.0103 43.5909 114.0103 42.7958 114.0103 41.9706 113.8691 41.1942 113.5843 40.4668 113.3019 39.742 112.8838 39.0906 112.3328 38.5206 111.7709 37.9315 111.1224 37.4783 110.3868 37.1633 109.6537 36.8484 108.8802 36.6911 108.0711 36.6911 107.2108 36.6911 106.4237 36.8456 105.7042 37.1526 104.9851 37.4593 104.3391 37.9205 103.7662 38.5342 103.2151 39.1232 102.8027 39.7746 102.5311 40.4858 102.257 41.1996 102.1212 41.9814 102.1212 42.8284ZM119.0619 43.1566H119.613C120.3457 43.1566 120.8806 43.268 121.2143 43.4906 121.5482 43.7131 121.7166 44.0634 121.7166 44.5411 121.7166 45.0351 121.57 45.3824 121.2769 45.5862 120.9864 45.7897 120.4733 45.8929 119.7459 45.8929H119.0619ZM119.0619 39.3131H119.7459V36.919H115.088V39.3131H116.2117V46.1208H115.088V48.4988H119.7459C120.7341 48.4988 121.4425 48.4498 121.8796 48.352 122.3138 48.2545 122.6937 48.0915 123.0168 47.8636 123.5134 47.5243 123.9072 47.0682 124.1895 46.4981 124.4744 45.9281 124.6156 45.3146 124.6156 44.6579 124.6156 43.8625 124.4228 43.1487 124.0401 42.516 123.6574 41.881 123.1254 41.4006 122.4493 41.072L123.8854 39.3131H124.9739V36.919H122.4711L119.0619 41.072ZM127.0911 39.3131V46.1208H125.9674V48.4988H130.9836V46.1208H129.9413V44.0198H133.3451V46.1208H132.2864V48.4988H137.319V46.1208H136.1789V39.3131H137.319V36.919H132.2864V39.3131H133.3451V41.6421H129.9413V39.3131H130.9997V36.919H125.9674V39.3131ZM144.4363 39.2967V40.6324H146.9769V36.919H138.5243V39.2967H139.648V46.1208H138.5243V48.4988H146.9769V44.7854H144.4363V46.1208H142.4982V44.0688H145.0551V41.4955H142.4982V39.2967ZM154.4145 42.4891 153.6029 45.1111 152.8075 42.4891ZM152.1726 40.2576 151.8469 39.3131H152.8075V36.919H147.7888V39.3131H148.9124L151.5183 46.1208H150.3972V48.4988H154.7402L158.2637 39.3131H159.3848V36.919H154.3657V39.3131H155.3131L155.02 40.2576ZM165.1014 39.4597C166.1817 39.4597 166.9825 39.7284 167.5009 40.263 168.0194 40.7979 168.277 41.6203 168.277 42.7331 168.277 43.7757 168.0004 44.5791 167.4437 45.1437 166.89 45.7084 166.0975 45.9904 165.0688 45.9904H163.9613V39.4597ZM161.1275 39.3131V46.1208H160.0036V48.4988H165.1473C166.2358 48.4988 167.1018 48.3928 167.7478 48.181 168.3967 47.9693 168.9775 47.6138 169.4985 47.1144 170.0495 46.5959 170.4677 45.9607 170.75 45.2089 171.0349 44.4597 171.176 43.6073 171.176 42.6518 171.176 41.7725 171.0349 40.9663 170.7554 40.2307 170.473 39.4977 170.066 38.8653 169.5311 38.336 169.0209 37.842 168.4536 37.4837 167.8238 37.2583 167.1968 37.0329 166.434 36.919 165.5382 36.919H160.0036V39.3131Z" fill="#ed1c24"/>
<path transform="matrix(1,0,0,-1,10,88.0001)" d="M74.9659 29.1946V31.6973H76.5337C77.2274 31.6973 77.5188 31.3455 77.5188 30.7423V30.2397C77.5188 29.6266 77.2274 29.1946 76.5337 29.1946ZM76.5337 28.29C77.8303 28.29 78.4636 29.1342 78.4636 30.2397V30.7423C78.4636 31.8682 77.8303 32.5919 76.5337 32.5919H74.4834C74.1617 32.5919 74.0211 32.3708 74.0211 32.1296V25.9177C74.0211 25.6765 74.1617 25.4554 74.4934 25.4554 74.825 25.4554 74.9659 25.6765 74.9659 25.9177V28.29ZM85.8631 25.556C86.0944 25.556 86.3056 25.6867 86.3056 26.0084 86.3056 26.3098 86.0944 26.4606 85.8631 26.4606H83.1093V28.722H85.3807C85.612 28.722 85.8231 28.8527 85.8231 29.1745 85.8231 29.4761 85.612 29.6266 85.3807 29.6266H83.1093V31.6871H85.8631C86.0944 31.6871 86.3056 31.8178 86.3056 32.1395 86.3056 32.4411 86.0944 32.5919 85.8631 32.5919H82.6268C82.3051 32.5919 82.1645 32.3708 82.1645 32.1296V26.0184C82.1645 25.7771 82.3051 25.556 82.6268 25.556ZM94.2982 30.7423C94.2982 31.8682 93.6649 32.5919 92.3885 32.5919H90.4184C90.0867 32.5919 89.9461 32.3708 89.9461 32.1296V25.9177C89.9461 25.6765 90.0867 25.4554 90.4184 25.4554 90.75 25.4554 90.8909 25.6765 90.8909 25.9177V28.4508H92.4789L93.5141 25.757C93.6048 25.526 93.8157 25.3752 94.1272 25.4957 94.4289 25.6164 94.4892 25.8676 94.3988 26.0989L93.6048 28.1191C93.494 28.3904 93.3834 28.6217 93.3131 28.7422 93.9163 29.084 94.2982 29.7374 94.2982 30.4611ZM90.8909 29.3553V31.6871H92.3885C93.0821 31.6871 93.3534 31.3455 93.3534 30.7423V30.4611C93.3534 29.8378 93.0821 29.3553 92.3885 29.3553ZM99.0646 28.722H101.336C101.5673 28.722 101.7785 28.8527 101.7785 29.1745 101.7785 29.4761 101.5673 29.6266 101.336 29.6266H99.0646V31.6871H101.8185C102.0498 31.6871 102.261 31.8178 102.261 32.1395 102.261 32.4411 102.0498 32.5919 101.8185 32.5919H98.5822C98.2604 32.5919 98.1198 32.3708 98.1198 32.1296V25.9177C98.1198 25.6765 98.2604 25.4554 98.5921 25.4554 98.9237 25.4554 99.0646 25.6765 99.0646 25.9177ZM106.4843 30.6822C106.4843 31.3053 106.7559 31.7877 107.4492 31.7877H108.2534C108.9468 31.7877 109.2183 31.3053 109.2183 30.6822V27.4657C109.2183 26.8427 108.9468 26.3602 108.2534 26.3602H107.4492C106.7559 26.3602 106.4843 26.8427 106.4843 27.4657ZM110.1631 30.6822C110.1631 31.7877 109.5299 32.6923 108.2534 32.6923H107.4492C106.1728 32.6923 105.5395 31.7877 105.5395 30.6822V27.4657C105.5395 26.3602 106.1728 25.4554 107.4492 25.4554H108.2534C109.5299 25.4554 110.1631 26.3602 110.1631 27.4657ZM118.4573 30.7423C118.4573 31.8682 117.824 32.5919 116.5476 32.5919H114.5775C114.2459 32.5919 114.1053 32.3708 114.1053 32.1296V25.9177C114.1053 25.6765 114.2459 25.4554 114.5775 25.4554 114.9092 25.4554 115.05 25.6765 115.05 25.9177V28.4508H116.638L117.6732 25.757C117.7639 25.526 117.9748 25.3752 118.2864 25.4957 118.588 25.6164 118.6483 25.8676 118.5579 26.0989L117.7639 28.1191C117.6531 28.3904 117.5426 28.6217 117.4723 28.7422 118.0755 29.084 118.4573 29.7374 118.4573 30.4611ZM115.05 29.3553V31.6871H116.5476C117.2412 31.6871 117.5125 31.3455 117.5125 30.7423V30.4611C117.5125 29.8378 117.2412 29.3553 116.5476 29.3553ZM125.0229 28.692C124.9625 28.8831 124.882 29.0738 124.7817 29.2649L123.2135 32.3507C123.0729 32.6319 122.9522 32.6923 122.7413 32.6923 122.4096 32.6923 122.279 32.4711 122.279 32.2299V25.9177C122.279 25.6765 122.4096 25.4554 122.7413 25.4554 123.0729 25.4554 123.2036 25.6765 123.2036 25.9177V29.7975C123.2036 30.0691 123.1835 30.3103 123.1634 30.4911H123.1736L124.6107 27.6868C124.681 27.5462 124.7817 27.4456 125.0229 27.4456 125.2641 27.4456 125.3645 27.5462 125.4351 27.6868L126.8722 30.4911H126.8824C126.8623 30.3103 126.8422 30.0691 126.8422 29.7975V25.9177C126.8422 25.6765 126.9729 25.4554 127.3045 25.4554 127.6362 25.4554 127.7668 25.6765 127.7668 25.9177V32.2299C127.7668 32.4711 127.6362 32.6923 127.3045 32.6923 127.0933 32.6923 126.9729 32.6319 126.832 32.3507L125.2641 29.2649C125.1635 29.0738 125.0833 28.8831 125.0229 28.692ZM134.8149 27.536 135.3776 25.7771C135.4581 25.5359 135.6894 25.3953 135.9607 25.4857 136.222 25.5762 136.3326 25.8174 136.2521 26.0586L134.2219 32.3507C134.1516 32.5718 134.0308 32.6923 133.7494 32.6923H133.6992C133.4177 32.6923 133.2972 32.5718 133.2266 32.3507L131.1965 26.0586C131.116 25.8174 131.2265 25.5762 131.4879 25.4857 131.7594 25.3953 131.9905 25.5359 132.071 25.7771L132.6336 27.536ZM133.5685 30.5717C133.6388 30.7928 133.6691 30.9033 133.7193 31.1445H133.7292C133.7797 30.9033 133.8097 30.7928 133.88 30.5717L134.5635 28.3805H132.8851ZM143.2899 28.2597C143.2899 27.9884 143.31 27.7472 143.3302 27.5664H143.3203L140.6364 32.3507C140.4856 32.622 140.3549 32.6923 140.1642 32.6923 139.8223 32.6923 139.6817 32.4711 139.6817 32.2299V25.9177C139.6817 25.6765 139.8124 25.4554 140.154 25.4554 140.4757 25.4554 140.6064 25.6765 140.6064 25.9177V29.8879C140.6064 30.1595 140.5862 30.4007 140.5661 30.5816H140.5763L143.2599 25.7973C143.4107 25.526 143.5414 25.4554 143.7321 25.4554 144.074 25.4554 144.2146 25.6765 144.2146 25.9177V32.2299C144.2146 32.4711 144.0839 32.6923 143.7423 32.6923 143.4206 32.6923 143.2899 32.4711 143.2899 32.2299ZM150.0664 26.3602C149.3731 26.3602 149.1015 26.8427 149.1015 27.4657V30.6822C149.1015 31.3053 149.3731 31.7877 150.0664 31.7877H151.0917C151.524 31.7877 151.755 31.6069 151.7953 31.1947 151.8154 30.9535 151.9359 30.7324 152.2576 30.7324 152.5995 30.7324 152.7401 30.9535 152.7401 31.1947 152.7401 32.2401 152.117 32.6923 151.0917 32.6923H150.0664C148.79 32.6923 148.1567 31.7877 148.1567 30.6822V27.4657C148.1567 26.3602 148.79 25.4554 150.0664 25.4554H151.0917C152.117 25.4554 152.7401 25.9078 152.7401 26.9532 152.7401 27.1945 152.5995 27.4156 152.2576 27.4156 151.9359 27.4156 151.8154 27.1945 151.7953 26.9532 151.755 26.5309 151.524 26.3602 151.0917 26.3602ZM160.1396 25.556C160.3709 25.556 160.5821 25.6867 160.5821 26.0084 160.5821 26.3098 160.3709 26.4606 160.1396 26.4606H157.3858V28.722H159.6572C159.8885 28.722 160.0997 28.8527 160.0997 29.1745 160.0997 29.4761 159.8885 29.6266 159.6572 29.6266H157.3858V31.6871H160.1396C160.3709 31.6871 160.5821 31.8178 160.5821 32.1395 160.5821 32.4411 160.3709 32.5919 160.1396 32.5919H156.9033C156.5816 32.5919 156.441 32.3708 156.441 32.1296V26.0184C156.441 25.7771 156.5816 25.556 156.9033 25.556Z" fill="#403f41"/>
<path transform="matrix(1,0,0,-1,10,88.0001)" d="M57.7763 22.6553C58.0252 23.1168 58.5201 23.7869 58.8135 24.1549L59.9409 25.5824C60.3193 26.3092 59.4513 28.6637 59.3833 29.7672L56.4384 25.9849C56.5843 25.562 57.475 22.9482 57.7763 22.6553" fill="#403f41" fill-rule="evenodd"/>
<path transform="matrix(1,0,0,-1,10,88.0001)" d="M80.9005 16.8528 79.9444 18.4944H79.3108V16.8528H78.7867V20.8675H80.0827C80.386 20.8675 80.6423 20.8157 80.8515 20.7119 81.0609 20.6084 81.2174 20.4681 81.3209 20.2915 81.4246 20.1149 81.4765 19.9134 81.4765 19.6866 81.4765 19.4102 81.3969 19.1665 81.2375 18.9553 81.0782 18.7441 80.839 18.6038 80.5204 18.5346L81.5284 16.8528ZM79.3108 18.915H80.0827C80.3667 18.915 80.5799 18.985 80.7219 19.1251 80.8639 19.2654 80.9351 19.4525 80.9351 19.6866 80.9351 19.9247 80.8651 20.1093 80.7248 20.2397 80.5847 20.3703 80.3707 20.4355 80.0827 20.4355H79.3108ZM82.8244 20.4412V19.0993H84.2873V18.6673H82.8244V17.2848H84.4603V16.8528H82.3003V20.8732H84.4603V20.4412ZM87.9506 19.6926C87.9506 19.3584 87.8363 19.0809 87.6078 18.8603 87.3794 18.6395 87.0307 18.5289 86.5624 18.5289H85.7906V16.8528H85.2664V20.8675H86.5624C87.0154 20.8675 87.3601 20.7581 87.5962 20.5393 87.8323 20.3204 87.9506 20.0381 87.9506 19.6926ZM86.5624 18.9609C86.8541 18.9609 87.0693 19.0244 87.2073 19.1511 87.3456 19.2779 87.4148 19.4581 87.4148 19.6926 87.4148 20.1878 87.1308 20.4355 86.5624 20.4355H85.7906V18.9609ZM90.9856 17.7457H89.2346L88.9121 16.8528H88.3593L89.8106 20.8446H90.4156L91.8612 16.8528H91.3082ZM90.8359 18.1718 90.1103 20.1994 89.3846 18.1718ZM93.0305 20.8675V16.8528H92.5064V20.8675ZM96.0486 16.8528 95.0924 18.4944H94.4589V16.8528H93.9348V20.8675H95.2308C95.5341 20.8675 95.7903 20.8157 95.9995 20.7119 96.209 20.6084 96.3655 20.4681 96.4689 20.2915 96.5727 20.1149 96.6246 19.9134 96.6246 19.6866 96.6246 19.4102 96.5449 19.1665 96.3856 18.9553 96.2263 18.7441 95.9871 18.6038 95.6684 18.5346L96.6764 16.8528ZM94.4589 18.915H95.2308C95.5148 18.915 95.728 18.985 95.87 19.1251 96.012 19.2654 96.0831 19.4525 96.0831 19.6866 96.0831 19.9247 96.0131 20.1093 95.8728 20.2397 95.7328 20.3703 95.5188 20.4355 95.2308 20.4355H94.4589ZM101.1747 19.1857V18.7421H98.8767V19.1857ZM104.9817 16.8126C104.7169 16.8126 104.4797 16.8596 104.2705 16.9537 104.0613 17.0476 103.8969 17.1782 103.7778 17.3452 103.659 17.5124 103.5975 17.7052 103.5935 17.9243H104.1523C104.1715 17.7361 104.2492 17.5776 104.3855 17.4489 104.5219 17.3203 104.7206 17.2559 104.9817 17.2559 105.2314 17.2559 105.4281 17.3186 105.5721 17.4433 105.7161 17.568 105.7881 17.7284 105.7881 17.9243 105.7881 18.0777 105.7459 18.2027 105.6614 18.2985 105.5769 18.3946 105.4715 18.4674 105.3448 18.5173 105.2178 18.5675 105.0471 18.6211 104.832 18.6786 104.567 18.7478 104.3549 18.8169 104.1956 18.8861 104.036 18.9553 103.9 19.0636 103.7866 19.2115 103.6732 19.3595 103.6168 19.5582 103.6168 19.8077 103.6168 20.0265 103.6723 20.2204 103.7837 20.3893 103.8951 20.5586 104.0516 20.6889 104.2532 20.7811 104.4547 20.8732 104.686 20.9194 104.9471 20.9194 105.3235 20.9194 105.6317 20.8253 105.8717 20.6371 106.1116 20.4489 106.2471 20.1994 106.2777 19.8884H105.7017C105.6827 20.0421 105.6019 20.1773 105.4599 20.2944 105.3179 20.4114 105.1296 20.4701 104.8955 20.4701 104.6764 20.4701 104.4978 20.4134 104.3597 20.3003 104.2214 20.1869 104.1523 20.0285 104.1523 19.8249 104.1523 19.679 104.1936 19.5599 104.2761 19.4678 104.3586 19.3757 104.4604 19.3056 104.5814 19.2577 104.7025 19.2095 104.8723 19.1548 105.0911 19.0933 105.3561 19.0205 105.5693 18.9485 105.7306 18.8773 105.8919 18.8065 106.0302 18.697 106.1453 18.5491 106.2604 18.4014 106.3182 18.2007 106.3182 17.9473 106.3182 17.7514 106.2663 17.5671 106.1626 17.3942 106.0588 17.2213 105.9052 17.0813 105.7017 16.9739 105.4981 16.8661 105.2583 16.8126 104.9817 16.8126ZM107.6255 20.4412V19.0993H109.0885V18.6673H107.6255V17.2848H109.2614V16.8528H107.1014V20.8732H109.2614V20.4412ZM112.1814 16.8528 111.2253 18.4944H110.5917V16.8528H110.0676V20.8675H111.3636C111.6669 20.8675 111.9231 20.8157 112.1323 20.7119 112.3418 20.6084 112.4983 20.4681 112.6018 20.2915 112.7055 20.1149 112.7574 19.9134 112.7574 19.6866 112.7574 19.4102 112.6777 19.1665 112.5184 18.9553 112.3591 18.7441 112.1199 18.6038 111.8013 18.5346L112.8093 16.8528ZM110.5917 18.915H111.3636C111.6476 18.915 111.8608 18.985 112.0028 19.1251 112.1448 19.2654 112.216 19.4525 112.216 19.6866 112.216 19.9247 112.146 20.1093 112.0056 20.2397 111.8656 20.3703 111.6516 20.4355 111.3636 20.4355H110.5917ZM116.8988 20.8675 115.384 16.8528H114.7791L113.2642 20.8675H113.8229L115.0843 17.4059 116.3458 20.8675ZM118.0103 20.8675V16.8528H117.4861V20.8675ZM118.7186 18.8631C118.7186 19.2546 118.8068 19.607 118.9834 19.9199 119.1603 20.2329 119.4012 20.4778 119.7065 20.6544 120.0118 20.831 120.3506 20.9194 120.723 20.9194 121.1607 20.9194 121.5428 20.8137 121.8694 20.6025 122.1956 20.3913 122.4337 20.092 122.5834 19.7039H121.9558C121.8444 19.946 121.684 20.1322 121.4748 20.2626 121.2656 20.3933 121.015 20.4585 120.723 20.4585 120.4427 20.4585 120.1912 20.3933 119.9684 20.2626 119.7456 20.1322 119.571 19.9468 119.4443 19.707 119.3176 19.4669 119.2544 19.1857 119.2544 18.8631 119.2544 18.5443 119.3176 18.265 119.4443 18.0249 119.571 17.7849 119.7456 17.5997 119.9684 17.4691 120.1912 17.3387 120.4427 17.2732 120.723 17.2732 121.015 17.2732 121.2656 17.3375 121.4748 17.4662 121.684 17.5949 121.8444 17.7803 121.9558 18.0221H122.5834C122.4337 17.638 122.1956 17.3415 121.8694 17.1323 121.5428 16.9228 121.1607 16.8182 120.723 16.8182 120.3506 16.8182 120.0118 16.9055 119.7065 17.0804 119.4012 17.2551 119.1603 17.498 118.9834 17.8089 118.8068 18.1199 118.7186 18.4714 118.7186 18.8631ZM123.8967 20.4412V19.0993H125.3597V18.6673H123.8967V17.2848H125.5326V16.8528H123.3726V20.8732H125.5326V20.4412ZM130.0652 19.1857V18.7421H127.7671V19.1857ZM134.7131 16.8528 133.757 18.4944H133.1235V16.8528H132.5993V20.8675H133.8953C134.1986 20.8675 134.4549 20.8157 134.6641 20.7119 134.8736 20.6084 135.03 20.4681 135.1335 20.2915 135.2373 20.1149 135.2891 19.9134 135.2891 19.6866 135.2891 19.4102 135.2095 19.1665 135.0502 18.9553 134.8909 18.7441 134.6516 18.6038 134.333 18.5346L135.341 16.8528ZM133.1235 18.915H133.8953C134.1794 18.915 134.3925 18.985 134.5346 19.1251 134.6766 19.2654 134.7477 19.4525 134.7477 19.6866 134.7477 19.9247 134.6777 20.1093 134.5374 20.2397 134.3974 20.3703 134.1833 20.4355 133.8953 20.4355H133.1235ZM136.637 20.4412V19.0993H138.1V18.6673H136.637V17.2848H138.2729V16.8528H136.1129V20.8732H138.2729V20.4412ZM140.3518 16.8126C140.0871 16.8126 139.8498 16.8596 139.6406 16.9537 139.4314 17.0476 139.267 17.1782 139.1479 17.3452 139.0292 17.5124 138.9677 17.7052 138.9637 17.9243H139.5224C139.5417 17.7361 139.6193 17.5776 139.7557 17.4489 139.892 17.3203 140.0907 17.2559 140.3518 17.2559 140.6015 17.2559 140.7983 17.3186 140.9423 17.4433 141.0863 17.568 141.1583 17.7284 141.1583 17.9243 141.1583 18.0777 141.116 18.2027 141.0316 18.2985 140.9471 18.3946 140.8416 18.4674 140.7149 18.5173 140.5879 18.5675 140.4173 18.6211 140.2021 18.6786 139.9371 18.7478 139.7251 18.8169 139.5658 18.8861 139.4062 18.9553 139.2701 19.0636 139.1567 19.2115 139.0433 19.3595 138.9869 19.5582 138.9869 19.8077 138.9869 20.0265 139.0425 20.2204 139.1539 20.3893 139.2653 20.5586 139.4218 20.6889 139.6233 20.7811 139.8249 20.8732 140.0562 20.9194 140.3172 20.9194 140.6937 20.9194 141.0018 20.8253 141.2419 20.6371 141.4817 20.4489 141.6172 20.1994 141.6478 19.8884H141.0718C141.0528 20.0421 140.972 20.1773 140.83 20.2944 140.688 20.4114 140.4998 20.4701 140.2656 20.4701 140.0465 20.4701 139.8679 20.4134 139.7299 20.3003 139.5916 20.1869 139.5224 20.0285 139.5224 19.8249 139.5224 19.679 139.5638 19.5599 139.6463 19.4678 139.7288 19.3757 139.8305 19.3056 139.9516 19.2577 140.0726 19.2095 140.2424 19.1548 140.4612 19.0933 140.7263 19.0205 140.9394 18.9485 141.1007 18.8773 141.262 18.8065 141.4003 18.697 141.5154 18.5491 141.6305 18.4014 141.6883 18.2007 141.6883 17.9473 141.6883 17.7514 141.6365 17.5671 141.5327 17.3942 141.429 17.2213 141.2753 17.0813 141.0718 16.9739 140.8683 16.8661 140.6285 16.8126 140.3518 16.8126ZM144.9425 20.8675V20.4412H143.8481V16.8528H143.3239V20.4412H142.2238V20.8675ZM147.4191 16.8126C147.0467 16.8126 146.7068 16.8999 146.3995 17.0745 146.0923 17.2494 145.8496 17.4932 145.671 17.8061 145.4924 18.1191 145.4031 18.4714 145.4031 18.8631 145.4031 19.2546 145.4924 19.607 145.671 19.9199 145.8496 20.2329 146.0923 20.4769 146.3995 20.6515 146.7068 20.8261 147.0467 20.9137 147.4191 20.9137 147.7953 20.9137 148.1372 20.8261 148.4444 20.6515 148.7514 20.4769 148.9935 20.234 149.1701 19.923 149.3467 19.6118 149.4351 19.2586 149.4351 18.8631 149.4351 18.4674 149.3467 18.1142 149.1701 17.8033 148.9935 17.4923 148.7514 17.2494 148.4444 17.0745 148.1372 16.8999 147.7953 16.8126 147.4191 16.8126ZM147.4191 17.2675C147.6995 17.2675 147.9518 17.3327 148.1766 17.4634 148.4011 17.5941 148.5777 17.7803 148.7064 18.0221 148.8351 18.2639 148.8994 18.5443 148.8994 18.8631 148.8994 19.1857 148.8351 19.4669 148.7064 19.707 148.5777 19.9468 148.4022 20.1322 148.1794 20.2626 147.9566 20.3933 147.7032 20.4585 147.4191 20.4585 147.1348 20.4585 146.8814 20.3933 146.6589 20.2626 146.4361 20.1322 146.2603 19.9468 146.1317 19.707 146.003 19.4669 145.9389 19.1857 145.9389 18.8631 145.9389 18.5443 146.003 18.2639 146.1317 18.0221 146.2603 17.7803 146.4369 17.5941 146.6617 17.4634 146.8862 17.3327 147.1388 17.2675 147.4191 17.2675ZM152.2517 16.8528 151.2955 18.4944H150.662V16.8528H150.1379V20.8675H151.4339C151.7372 20.8675 151.9934 20.8157 152.2026 20.7119 152.4121 20.6084 152.5686 20.4681 152.672 20.2915 152.7758 20.1149 152.8277 19.9134 152.8277 19.6866 152.8277 19.4102 152.748 19.1665 152.5887 18.9553 152.4294 18.7441 152.1901 18.6038 151.8715 18.5346L152.8795 16.8528ZM150.662 18.915H151.4339C151.7179 18.915 151.9311 18.985 152.0731 19.1251 152.2151 19.2654 152.2862 19.4525 152.2862 19.6866 152.2862 19.9247 152.2162 20.1093 152.0759 20.2397 151.9359 20.3703 151.7219 20.4355 151.4339 20.4355H150.662ZM154.1755 20.4412V19.0993H155.6385V18.6673H154.1755V17.2848H155.8114V16.8528H153.6514V20.8732H155.8114V20.4412Z" fill="#403f41"/>
</g>
</g>
</svg>
